<?xml version="1.0" encoding="UTF-8"?>
<svg version="1.1" xmlns="http://www.w3.org/2000/svg" width="2085" height="2086">
<path d="M0 0 C1.50695499 -0.00116007 3.01390969 -0.00275339 4.52086383 -0.00472724 C8.55201275 -0.00879844 12.5831372 -0.00688727 16.61428607 -0.00374103 C21.0032399 -0.00143618 25.39219012 -0.00499103 29.78114319 -0.00772095 C38.33041054 -0.01212218 46.87966901 -0.01122827 55.42893668 -0.00830831 C62.37752969 -0.00603461 69.32612024 -0.00575019 76.27471352 -0.00683212 C77.26980249 -0.00698536 78.26489146 -0.00713859 79.29013464 -0.00729647 C81.31242984 -0.00761623 83.33472504 -0.00794045 85.35702024 -0.00826906 C104.22572496 -0.01110654 123.0944248 -0.00786269 141.96312872 -0.00246869 C158.13466739 0.00201095 174.30619889 0.00121054 190.47773743 -0.00338745 C209.31603021 -0.00874125 228.15431875 -0.01084578 246.99261218 -0.00777519 C249.00097295 -0.00745667 251.00933371 -0.0071423 253.01769447 -0.00683212 C254.00557652 -0.00667785 254.99345856 -0.00652357 256.01127642 -0.00636462 C262.95695802 -0.00550287 269.90263692 -0.00695471 276.8483181 -0.00931168 C285.30325478 -0.01211822 293.75818218 -0.01135278 302.2131178 -0.00603093 C306.52230542 -0.00340753 310.83147756 -0.00236598 315.14066505 -0.00568008 C319.0882277 -0.00867025 323.0357606 -0.00700513 326.98332057 -0.00170253 C328.40725183 -0.0005901 329.83118562 -0.00114332 331.25511523 -0.00357832 C333.19927877 -0.00664681 335.14344941 -0.00288271 337.0876112 0.0011425 C338.7032837 0.00138603 338.7032837 0.00138603 340.35159606 0.00163448 C344.88518284 0.16292416 349.36728648 0.63125855 353.87495422 1.12698364 C354.98109642 21.66346053 355.0164432 42.16915982 354.99721997 62.72791981 C354.9937474 67.64997868 354.99616719 72.57203551 354.99780273 77.49409485 C354.99986906 86.10609222 354.99825294 94.71808264 354.99416935 103.3300792 C354.98803878 116.30186124 354.98780195 129.27363913 354.98863465 142.24542236 C354.98987365 163.98938628 354.98659615 185.73334716 354.98052979 207.47731018 C354.97234177 236.8780732 354.97042583 266.27883105 354.96955872 295.67959595 C354.96431103 366.34955913 354.95034989 437.01952144 354.93745422 507.68948364 C354.91682922 665.57385864 354.89620422 823.45823364 354.87495422 986.12698364 C811.59495422 986.12698364 1268.31495422 986.12698364 1738.87495422 986.12698364 C1738.87495422 1238.90698364 1738.87495422 1491.68698364 1738.87495422 1752.12698364 C1149.82495422 1752.12698364 560.77495422 1752.12698364 -46.12504578 1752.12698364 C-46.12504578 1174.29698364 -46.12504578 596.46698364 -46.12504578 1.12698364 C-12.8114676 -0.02176043 -12.8114676 -0.02176043 0 0 Z M-18.12504578 28.12698364 C-18.12504578 587.80698364 -18.12504578 1147.48698364 -18.12504578 1724.12698364 C-10.76311898 1724.97259779 -10.76311898 1724.97259779 -3.47870699 1725.25212748 C-2.44525877 1725.25458598 -1.41181056 1725.25704448 -0.34704574 1725.25957748 C0.76417188 1725.25718674 1.87538949 1725.254796 3.02028036 1725.25233281 C4.2260739 1725.25373512 5.43186744 1725.25513744 6.67420018 1725.25658225 C10.01974188 1725.25946125 13.36522712 1725.25787091 16.71076463 1725.2543923 C20.36452385 1725.2517043 24.01827893 1725.25484359 27.67203772 1725.25722915 C34.0998689 1725.26062233 40.52769159 1725.26029098 46.95552295 1725.25754561 C56.57811998 1725.25345426 66.20071013 1725.25512783 75.82330732 1725.25792825 C92.22222377 1725.26253092 108.62113713 1725.26237694 125.02005386 1725.25964737 C141.6417408 1725.25689755 158.2634257 1725.25631462 174.88511276 1725.2583847 C175.93436876 1725.25851388 176.98362475 1725.25864305 178.06467638 1725.25877614 C182.33800996 1725.2593094 186.61134353 1725.2598581 190.8846771 1725.26042641 C230.70076738 1725.26571783 270.5168563 1725.26607356 310.33294678 1725.26327896 C312.10322018 1725.26315477 312.10322018 1725.26315477 313.90925668 1725.26302807 C315.6823468 1725.26290367 315.6823468 1725.26290367 317.49125693 1725.26277676 C353.475159 1725.26025553 389.45906051 1725.25960128 425.44296265 1725.26079941 C427.85079364 1725.26087689 430.25862463 1725.26095404 432.66645562 1725.26103088 C442.3419719 1725.26134133 452.01748817 1725.26166 461.69300445 1725.26199064 C488.74079884 1725.26290772 515.78859323 1725.26347827 542.83638763 1725.26377678 C544.06814323 1725.26379042 545.29989883 1725.26380407 546.56898035 1725.26381813 C585.82691401 1725.2642275 625.08484747 1725.26310002 664.34278107 1725.2609272 C665.61638117 1725.26085695 666.88998127 1725.2607867 668.20217531 1725.26071432 C688.88588157 1725.25956932 709.56958783 1725.25834988 730.25329409 1725.25712415 C812.3124027 1725.25226645 894.37150968 1725.25249416 976.43061829 1725.25735474 C997.11330414 1725.25857587 1017.79598999 1725.25978689 1038.47867584 1725.2609272 C1039.75208116 1725.26099765 1041.02548647 1725.2610681 1042.33747983 1725.26114068 C1081.56094188 1725.26329579 1120.7844038 1725.26421135 1160.00786591 1725.26377678 C1161.23861418 1725.26376319 1162.46936245 1725.26374961 1163.73740612 1725.26373561 C1190.75001159 1725.26342318 1217.76261704 1725.26278964 1244.7752225 1725.26186628 C1254.43967054 1725.26153712 1264.10411858 1725.26122404 1273.76856663 1725.26091557 C1276.17294691 1725.26083818 1278.57732718 1725.26075945 1280.98170746 1725.26067937 C1316.96414093 1725.2594843 1352.94657377 1725.26050507 1388.92900716 1725.26302807 C1390.10985179 1725.26311086 1391.29069642 1725.26319366 1392.50732422 1725.26327896 C1394.27534029 1725.26340298 1394.27534029 1725.26340298 1396.07907386 1725.26352951 C1435.76908737 1725.26628327 1475.45909924 1725.2652822 1515.14911252 1725.25999822 C1519.40474307 1725.25944583 1523.66037363 1725.25890913 1527.91600418 1725.2583847 C1529.48267729 1725.25818939 1529.48267729 1725.25818939 1531.08100035 1725.25799014 C1547.66641697 1725.25601229 1564.25183156 1725.25739677 1580.837248 1725.26015371 C1597.11738884 1725.26278911 1613.39752622 1725.26188861 1629.67766661 1725.25713962 C1639.24039936 1725.25445704 1648.80312267 1725.25455081 1658.36585497 1725.25862122 C1664.69951793 1725.26104731 1671.03317348 1725.25991136 1677.36683553 1725.25575437 C1680.96825858 1725.25349362 1684.5696627 1725.25285711 1688.17108496 1725.25657088 C1692.02487381 1725.26051099 1695.87863263 1725.25685679 1699.7324214 1725.25233281 C1700.86276495 1725.25472355 1701.9931085 1725.25711429 1703.15770488 1725.25957748 C1704.67837518 1725.25588973 1704.67837518 1725.25588973 1706.2297661 1725.25212748 C1707.10960488 1725.25209951 1707.98944365 1725.25207154 1708.89594421 1725.25204273 C1710.87649349 1725.3458124 1710.87649349 1725.3458124 1711.87495422 1724.12698364 C1711.97270402 1722.57310223 1712.00018409 1721.01476001 1712.00030339 1719.45780706 C1712.00280691 1718.4395232 1712.00531042 1717.42123934 1712.00788981 1716.37209839 C1712.00554864 1715.23753033 1712.00320747 1714.10296227 1712.00079536 1712.93401337 C1712.00224881 1711.73610218 1712.00370225 1710.53819099 1712.00519973 1709.30397946 C1712.00824146 1705.94897364 1712.0067476 1702.59402304 1712.00342178 1699.23902095 C1712.00090099 1695.60040387 1712.00413863 1691.96179139 1712.00666511 1688.32317495 C1712.01028982 1681.93613706 1712.01015928 1675.54910761 1712.00761795 1669.16206932 C1712.00384922 1659.66461855 1712.00576202 1650.16717496 1712.00882626 1640.66972424 C1712.01410362 1623.71133222 1712.013631 1606.75294395 1712.01074735 1589.79455157 C1712.00823613 1574.954368 1712.00757305 1560.11418581 1712.00876999 1545.27400208 C1712.00884637 1544.29129607 1712.00892276 1543.30859007 1712.00900146 1542.2961051 C1712.00931278 1538.30742201 1712.00963117 1534.31873892 1712.00996122 1530.33005584 C1712.01302325 1492.87957029 1712.01024197 1455.42908714 1712.00486433 1417.97860195 C1712.00011839 1384.67405733 1712.000543 1351.36951652 1712.00532532 1318.06497192 C1712.01067485 1280.68490302 1712.01280613 1243.30483625 1712.00971305 1205.92476702 C1712.00939232 1201.94316642 1712.00907948 1197.96156581 1712.00876999 1193.97996521 C1712.00869091 1192.99952544 1712.00861183 1192.01908568 1712.00853036 1191.00893561 C1712.00739078 1176.17464241 1712.00872708 1161.34035073 1712.01124954 1146.50605774 C1712.01410206 1129.64623347 1712.01340841 1112.78641357 1712.0079688 1095.92658985 C1712.0050218 1086.47976209 1712.00485619 1077.03294376 1712.00861497 1067.58611624 C1712.01084552 1061.28788459 1712.0094834 1054.98966056 1712.0051102 1048.69143005 C1712.00271536 1045.09499988 1712.00195104 1041.49858854 1712.00551619 1037.90215892 C1712.00930461 1034.04141367 1712.00547965 1030.18069873 1712.00079536 1026.31995392 C1712.00313653 1025.18538586 1712.0054777 1024.05081781 1712.00788981 1022.8818689 C1712.00413453 1021.3544431 1712.00413453 1021.3544431 1712.00030339 1019.79616022 C1712.00023563 1018.91181784 1712.00016787 1018.02747546 1712.00009806 1017.11633483 C1712.0950669 1015.12665708 1712.0950669 1015.12665708 1710.87495422 1014.12698364 C1707.8680435 1014.02532865 1704.88397705 1013.99025959 1701.87650722 1013.99637312 C1700.91414172 1013.9944006 1699.95177622 1013.99242809 1698.96024813 1013.9903958 C1695.6859746 1013.98493235 1692.41174264 1013.98668623 1689.13746548 1013.98831844 C1686.77598719 1013.98587405 1684.41450933 1013.9829911 1682.05303207 1013.97970566 C1676.87688437 1013.97352556 1671.70074431 1013.97049533 1666.52459335 1013.97014564 C1658.77570271 1013.96960234 1651.0268241 1013.9633213 1643.2779374 1013.95588051 C1630.0746857 1013.94337034 1616.87143498 1013.93561626 1603.66817856 1013.93040276 C1590.27953309 1013.92509678 1576.89089147 1013.91762366 1563.50224876 1013.90747452 C1562.65806195 1013.90683588 1561.81387513 1013.90619725 1560.9441069 1013.90553927 C1556.6399465 1013.90227307 1552.33578613 1013.89897132 1548.03162576 1013.895657 C1516.84044155 1013.87171181 1485.64925587 1013.85261089 1454.45806694 1013.83605766 C1423.55876937 1013.81964521 1392.65947416 1013.80117261 1361.76017952 1013.77992439 C1360.80136919 1013.779266 1359.84255887 1013.7786076 1358.85469368 1013.77792926 C1350.09772983 1013.77191493 1341.34076599 1013.76587513 1332.58380217 1013.75980475 C1310.8127656 1013.74471326 1289.04172881 1013.72994142 1267.27069187 1013.71538639 C1266.27917162 1013.71472325 1265.28765136 1013.71406012 1264.26608503 1013.71337688 C1216.00769855 1013.68112916 1167.74930998 1013.65256397 1119.49092102 1013.6242981 C1102.73943581 1013.61448438 1085.98795061 1013.6046544 1069.23646545 1013.59475708 C1068.19756872 1013.59414328 1067.15867199 1013.59352948 1066.08829353 1013.59289709 C1017.8130638 1013.56435298 969.53783586 1013.53319673 921.2626082 1013.50136457 C918.12941712 1013.49929862 914.99622604 1013.49723381 911.86303495 1013.49516922 C891.09960905 1013.48148554 870.33618318 1013.4677568 849.57275733 1013.45399788 C808.25696847 1013.42662029 766.94117943 1013.39950755 725.62539027 1013.3725767 C723.65772392 1013.37129411 721.69005756 1013.37001134 719.7223912 1013.36872838 C631.11691569 1013.31095746 542.51143836 1013.25626792 453.90596008 1013.20291138 C452.66118238 1013.20216177 452.66118238 1013.20216177 451.39125766 1013.20139701 C409.88582329 1013.17640462 368.38038882 1013.15158794 326.87495422 1013.12698364 C326.8751102 1012.27392906 326.87526618 1011.42087448 326.87542689 1010.54196975 C326.89147627 922.58490497 326.90689203 834.62783994 326.91729736 732.06311035 C326.91743681 730.66361955 326.91757627 729.26412876 326.91771572 727.86463796 C326.92063822 698.49088766 326.92335495 669.11713734 326.9258339 639.743387 C326.92707932 624.98863482 326.9283643 610.23388265 326.92968667 595.47913048 C326.92988591 593.25339031 326.93008403 591.02765013 326.9302821 588.80190995 C326.93334317 554.51652979 326.93725401 520.23114998 326.94361877 485.94577026 C326.94375567 485.20824356 326.94389257 484.47071686 326.94403362 483.71084086 C326.94624607 471.81924009 326.94852965 459.92763933 326.95082266 448.03603856 C326.95742377 413.79700745 326.96350154 379.55797661 326.96609402 345.31894493 C326.96614755 344.61528922 326.96620109 343.91163351 326.96625624 343.1866549 C326.96742183 327.74208943 326.96831677 312.29752395 326.96895521 296.85295845 C326.96921684 290.63918925 326.96951746 284.42542005 326.96983147 278.21165085 C326.96988161 277.19152699 326.96988161 277.19152699 326.96993276 276.15079457 C326.97103034 254.21518774 326.97530527 232.27958292 326.98123643 210.3439769 C326.98735894 187.64567824 326.98997111 164.94738121 326.9884556 142.24908163 C326.98769211 129.14985511 326.98974866 116.05063593 326.99575177 102.95141073 C326.99948278 94.21728205 326.99963129 85.48315822 326.99678604 76.74902922 C326.99526645 71.76212865 326.99538084 66.77524202 326.99983741 61.78834291 C327.00385285 57.26098462 327.00335468 52.73365125 326.9990942 48.20629339 C326.99837384 46.569649 326.99936755 44.93300284 327.00218947 43.29636073 C327.00575505 41.09034441 327.00326767 38.88441871 326.99915272 36.6784054 C326.9993087 35.45208574 326.99946468 34.22576607 326.99962539 32.9622852 C327.0701181 30.1777356 327.0701181 30.1777356 325.87495422 28.12698364 C212.35495422 28.12698364 98.83495422 28.12698364 -18.12504578 28.12698364 Z " fill="#000000" transform="translate(226.1250457763672,165.87301635742188)"/>
<path d="M0 0 C4.61868702 2.6739767 6.71427929 7.47204213 8.375 12.375 C8.77142026 15.02866094 9.09139995 17.63012156 9.33984375 20.296875 C9.45660713 21.4514193 9.45660713 21.4514193 9.57572937 22.62928772 C9.74160587 24.27571086 9.9042797 25.92245928 10.06402588 27.56948853 C10.39750176 30.99922775 10.74898885 34.42704118 11.09967041 37.85505676 C11.36175662 40.41868042 11.62158734 42.98252648 11.88134766 45.54638672 C12.5484052 52.09798927 13.25150136 58.64463176 14 65.1875 C14.11077881 66.22293945 14.22155762 67.25837891 14.33569336 68.32519531 C14.49823608 69.7207666 14.49823608 69.7207666 14.6640625 71.14453125 C14.75381348 71.94479736 14.84356445 72.74506348 14.93603516 73.56958008 C15.08089355 74.16536865 15.22575195 74.76115723 15.375 75.375 C18.36474234 76.86987117 20.97729946 76.357096 24.3046875 76.21875 C25.74453322 76.16401036 27.18439393 76.10966393 28.62426758 76.05566406 C29.37962799 76.02573364 30.1349884 75.99580322 30.91323853 75.96496582 C55.67797875 75.01151799 79.52832417 76.15905061 103.7578125 81.82421875 C106.41853014 82.47796844 106.41853014 82.47796844 109.375 82.375 C109.99375 81.10269531 109.99375 81.10269531 110.625 79.8046875 C114.00397191 72.94115081 117.53095639 66.25128825 121.38598633 59.64160156 C123.78010521 55.50361831 125.96156315 51.2935195 128.0625 47 C130.25705663 42.53607231 132.53417928 38.2673179 135.26171875 34.109375 C136.3952345 32.34347678 137.38351441 30.53616635 138.375 28.6875 C141.33871406 23.77884859 145.01473177 19.61883321 150.375 17.375 C155.12414739 17.375 158.03428166 17.75198765 161.75 20.75 C165.13751938 24.13751938 166.67710716 26.18336352 166.7734375 30.93359375 C166.64272007 36.84695037 164.67213981 41.2431197 162 46.4375 C161.55100342 47.34508057 161.10200684 48.25266113 160.6394043 49.18774414 C157.34252763 55.74990169 153.73502988 62.10267462 149.93408203 68.38378906 C146.01574067 74.86706139 142.66073662 81.55149583 139.375 88.375 C138.71095585 89.70964137 138.04553232 91.04360651 137.375 92.375 C143.53237925 95.26499574 149.67191175 98.12423991 156 100.625 C171.92353977 107.18050774 186.77083587 116.09253434 200.58203125 126.31640625 C202.54324514 127.76194432 204.5214819 129.18453329 206.51171875 130.58984375 C207.51847656 131.30269531 208.52523437 132.01554688 209.5625 132.75 C210.48417969 133.39710938 211.40585938 134.04421875 212.35546875 134.7109375 C213.02191406 135.26007813 213.68835937 135.80921875 214.375 136.375 C214.375 137.035 214.375 137.695 214.375 138.375 C215.365 138.705 216.355 139.035 217.375 139.375 C217.375 140.035 217.375 140.695 217.375 141.375 C222.07270651 139.94675956 224.92979606 137.21058412 228.25 133.75 C229.04325684 132.94030762 229.04325684 132.94030762 229.85253906 132.11425781 C233.27616635 128.59407206 236.5549422 124.97324765 239.734375 121.23046875 C241.52964782 119.20010068 243.43115862 117.32569706 245.375 115.4375 C248.97220195 111.91728097 251.97464432 108.13083851 254.9296875 104.0625 C255.64511719 103.2271875 255.64511719 103.2271875 256.375 102.375 C257.035 102.375 257.695 102.375 258.375 102.375 C258.705 101.385 259.035 100.395 259.375 99.375 C261.08203125 97.83984375 261.08203125 97.83984375 263.1875 96.3125 C263.87457031 95.80589844 264.56164063 95.29929687 265.26953125 94.77734375 C269.89552064 91.69621167 273.75743653 90.48744662 279.375 91.375 C283.1826546 93.38659111 286.42334016 95.47168033 288.375 99.375 C289.36454265 105.8620018 287.79162956 109.06476287 283.98046875 114.296875 C283.18576172 115.32554687 283.18576172 115.32554687 282.375 116.375 C281.85550781 117.12265625 281.33601563 117.8703125 280.80078125 118.640625 C280.09501953 119.49914062 280.09501953 119.49914062 279.375 120.375 C278.715 120.375 278.055 120.375 277.375 120.375 C277.1275 120.93703125 276.88 121.4990625 276.625 122.078125 C275.16225133 124.76592569 273.40695127 126.83905482 271.375 129.125 C270.67375 129.92421875 269.9725 130.7234375 269.25 131.546875 C267.375 133.375 267.375 133.375 265.375 133.375 C264.98538086 134.24789673 264.98538086 134.24789673 264.58789062 135.13842773 C263.28890854 137.53375279 261.85332104 139.19756317 259.96875 141.16015625 C259.30746094 141.85560547 258.64617188 142.55105469 257.96484375 143.26757812 C257.27519531 143.98365234 256.58554688 144.69972656 255.875 145.4375 C254.50848598 146.86403847 253.14382301 148.29235301 251.78125 149.72265625 C251.17603516 150.35179932 250.57082031 150.98094238 249.94726562 151.62915039 C248.19006939 153.49572398 248.19006939 153.49572398 246.375 156.375 C245.715 156.375 245.055 156.375 244.375 156.375 C244.045 157.365 243.715 158.355 243.375 159.375 C242.715 159.705 242.055 160.035 241.375 160.375 C240.78494803 164.1260447 241.33760129 165.32235004 243.578125 168.4765625 C244.58573955 169.6579212 245.60199219 170.83194586 246.625 172 C269.26500292 199.10093707 283.73810753 233.42078563 289.93652344 268.00463867 C290.38992429 270.45567927 290.89611869 272.89222101 291.40625 275.33203125 C298.6083977 311.3358044 292.43822746 350.35289956 279.375 384.375 C279.01390137 385.34445557 279.01390137 385.34445557 278.64550781 386.33349609 C275.40427483 395.016452 271.55848254 403.31374813 267.3046875 411.54638672 C266.33292087 413.45776594 265.39753363 415.38380007 264.46875 417.31640625 C260.04990236 426.46555243 255.07300254 434.96819094 249.375 443.375 C248.81594971 444.21224609 248.81594971 444.21224609 248.24560547 445.06640625 C243.03621292 452.86579206 237.40410504 460.19204899 231.375 467.375 C229.78926236 469.3105327 228.20590214 471.24801576 226.625 473.1875 C225.87863281 474.09628906 225.13226562 475.00507812 224.36328125 475.94140625 C223.22412725 477.33569494 222.09187875 478.73584081 220.98046875 480.15234375 C218.25285882 483.59150409 215.20239761 486.30175355 211.875 489.125 C208.59319898 492.07862092 205.53069929 495.22617504 202.4375 498.375 C192.16779577 508.7748045 192.16779577 508.7748045 186.375 512.375 C185.715 512.375 185.055 512.375 184.375 512.375 C184.375 513.035 184.375 513.695 184.375 514.375 C182.38765274 515.89455146 180.40862178 517.26754496 178.3125 518.625 C177.6527417 519.05611084 176.9929834 519.48722168 176.31323242 519.93139648 C174.00831954 521.42515179 171.69280057 522.90132538 169.375 524.375 C168.50198242 524.93396973 167.62896484 525.49293945 166.72949219 526.06884766 C153.70801227 534.36171609 140.66261731 541.52710018 126.375 547.375 C125.62444336 547.69017578 124.87388672 548.00535156 124.10058594 548.33007812 C112.1289814 553.34485606 99.90564016 557.03083552 87.375 560.375 C86.16070313 560.70628906 84.94640625 561.03757812 83.6953125 561.37890625 C77.90693009 562.90332757 72.32924603 563.79878264 66.375 564.375 C65.715 564.705 65.055 565.035 64.375 565.375 C62.87751529 565.58269352 61.37315947 565.74216372 59.8671875 565.875 C58.50980469 565.99875 58.50980469 565.99875 57.125 566.125 C55.701875 566.24875 55.701875 566.24875 54.25 566.375 C52.39312617 566.54051522 50.53635317 566.70716582 48.6796875 566.875 C47.85452637 566.9471875 47.02936523 567.019375 46.17919922 567.09375 C43.96166061 567.31616028 41.74995773 567.59669547 39.54174805 567.89794922 C35.49446246 568.41041282 31.47865345 568.51993872 27.40234375 568.5078125 C26.67559952 568.50876923 25.94885529 568.50972595 25.2000885 568.51071167 C23.67660433 568.51138686 22.15311718 568.50957915 20.62963867 568.50537109 C18.31487502 568.50000551 16.00030467 568.50534268 13.68554688 568.51171875 C12.19531208 568.511058 10.7050774 568.50977691 9.21484375 568.5078125 C8.53236069 568.50983673 7.84987762 568.51186096 7.14671326 568.51394653 C2.8030367 568.49302217 -1.33847205 568.0526194 -5.625 567.375 C-7.21359104 567.19678821 -8.80339536 567.02884243 -10.39453125 566.875 C-11.63299805 566.75125 -11.63299805 566.75125 -12.89648438 566.625 C-14.60983985 566.45643005 -16.32338772 566.28980569 -18.03710938 566.125 C-18.85630859 566.0425 -19.67550781 565.96 -20.51953125 565.875 C-21.26050049 565.8028125 -22.00146973 565.730625 -22.76489258 565.65625 C-24.625 565.375 -24.625 565.375 -26.625 564.375 C-28.37094104 564.07912744 -30.12201134 563.81326175 -31.875 563.5625 C-37.82394579 562.61494337 -43.44672473 561.04574204 -49.2109375 559.3203125 C-53.249732 558.20201929 -57.27533531 557.47585028 -61.41796875 556.8671875 C-63.625 556.375 -63.625 556.375 -66.625 554.375 C-68.94897684 553.67641534 -71.28380445 553.01350788 -73.625 552.375 C-81.9867977 549.63263827 -89.8435736 546.46315238 -97.625 542.375 C-99.91592606 541.24849262 -102.20764829 540.12360346 -104.5 539 C-111.05174937 535.7463497 -117.36418376 532.15494525 -123.625 528.375 C-124.87410156 527.64216797 -124.87410156 527.64216797 -126.1484375 526.89453125 C-128.01063115 525.78048207 -129.82480017 524.58667296 -131.625 523.375 C-131.625 522.715 -131.625 522.055 -131.625 521.375 C-132.29144531 521.15972656 -132.95789062 520.94445312 -133.64453125 520.72265625 C-137.62230295 518.92405699 -140.85309575 516.45242108 -144.3125 513.8125 C-145.02148438 513.2760083 -145.73046875 512.7395166 -146.4609375 512.18676758 C-151.32897293 508.46425005 -155.97049791 504.56903796 -160.45703125 500.390625 C-162.52722547 498.46590389 -164.65453109 496.63752513 -166.8125 494.8125 C-170.07967692 491.962687 -172.91093442 488.91049522 -175.7109375 485.60546875 C-177.95473516 482.9907576 -180.28774767 480.46893493 -182.625 477.9375 C-194.625 464.76318807 -194.625 464.76318807 -194.625 461.375 C-195.285 461.375 -195.945 461.375 -196.625 461.375 C-198.30034134 458.9463577 -199.85292558 456.5225517 -201.375 454 C-201.82166016 453.27425781 -202.26832031 452.54851562 -202.72851562 451.80078125 C-205.72608681 446.91617176 -208.64647261 441.98821121 -211.46875 437 C-212.04109375 436.195625 -212.04109375 436.195625 -212.625 435.375 C-213.285 435.375 -213.945 435.375 -214.625 435.375 C-214.90174561 436.02460693 -215.17849121 436.67421387 -215.46362305 437.34350586 C-216.74158018 440.33533516 -218.02698689 443.32390996 -219.3125 446.3125 C-219.74755859 447.33408203 -220.18261719 448.35566406 -220.63085938 449.40820312 C-224.61493841 458.64536414 -229.37251423 467.13942612 -234.75 475.625 C-235.60717313 476.98412136 -236.46395355 478.34349049 -237.3203125 479.703125 C-237.71895508 480.33154297 -238.11759766 480.95996094 -238.52832031 481.60742188 C-239.49550092 483.1662793 -240.40489459 484.76067318 -241.3046875 486.359375 C-241.74039063 487.02453125 -242.17609375 487.6896875 -242.625 488.375 C-243.285 488.375 -243.945 488.375 -244.625 488.375 C-244.86347656 489.07496094 -245.10195312 489.77492188 -245.34765625 490.49609375 C-249.34612017 499.50792223 -257.31819108 507.37742911 -264.04467773 514.50415039 C-266.13868898 516.72344108 -267.92503072 518.82504608 -269.625 521.375 C-270.285 521.375 -270.945 521.375 -271.625 521.375 C-271.625 522.035 -271.625 522.695 -271.625 523.375 C-273.26851457 524.73676922 -274.94022656 526.06462066 -276.625 527.375 C-279.19869344 529.8886406 -281.70106528 532.45525877 -284.17578125 535.06640625 C-306.65541586 558.43632342 -337.20388024 576.17850712 -366.92578125 588.78515625 C-370.01957552 590.09850764 -373.03882118 591.5316174 -376.0625 593 C-381.2776637 595.39913262 -386.65070435 596.98270012 -392.17358398 598.50048828 C-396.14589168 599.5996657 -399.97883763 600.86474743 -403.83203125 602.33203125 C-410.04346723 604.62597251 -416.34808813 606.10349562 -422.8125 607.5 C-423.99271729 607.75934326 -425.17293457 608.01868652 -426.38891602 608.28588867 C-434.13109259 609.94738872 -441.80688144 611.26056092 -449.68359375 612.05078125 C-452.47432134 612.28229894 -452.47432134 612.28229894 -454.52171326 612.88717651 C-456.82156942 613.42059111 -458.85912902 613.50202662 -461.21899414 613.50439453 C-462.57674706 613.50912277 -462.57674706 613.50912277 -463.96192932 613.51394653 C-464.93484421 613.5119223 -465.90775909 613.50989807 -466.91015625 613.5078125 C-467.92162216 613.50876923 -468.93308807 613.50972595 -469.97520447 613.51071167 C-472.117829 613.51139209 -474.2604556 613.50954743 -476.40307617 613.50537109 C-479.65092733 613.50005981 -482.89863774 613.50530057 -486.14648438 613.51171875 C-488.2343753 613.51105718 -490.32226614 613.5097744 -492.41015625 613.5078125 C-493.36890152 613.50983673 -494.32764679 613.51186096 -495.31544495 613.51394653 C-511.37191383 613.45936206 -511.37191383 613.45936206 -517.625 611.375 C-519.35138695 611.19929341 -521.08132409 611.05714403 -522.8125 610.9375 C-526.93053623 610.59658504 -530.68307842 609.95221013 -534.65234375 608.84375 C-536.87406087 608.31581722 -539.03943682 608.08470599 -541.3125 607.875 C-544.77667579 607.53861496 -547.40918491 606.74172141 -550.625 605.375 C-551.97525814 605.04799394 -553.33171935 604.74621199 -554.69140625 604.4609375 C-559.51843653 603.41506476 -564.28923288 602.20424418 -569.0625 600.9375 C-569.89072266 600.71795654 -570.71894531 600.49841309 -571.57226562 600.2722168 C-587.7475357 595.9599762 -587.7475357 595.9599762 -591.625 593.375 C-593.04895034 592.85695331 -594.48843888 592.38047723 -595.9375 591.9375 C-599.71705604 590.72415938 -603.07129514 589.15185243 -606.625 587.375 C-608.26731075 586.80229676 -609.91367083 586.24115692 -611.5625 585.6875 C-618.37670213 583.26776292 -624.55869148 579.83867819 -630.86621094 576.34472656 C-632.42674828 575.48430814 -633.99782612 574.64306883 -635.5703125 573.8046875 C-654.52960383 563.68938046 -672.26990534 551.45551938 -687.625 536.375 C-688.16882324 535.84487305 -688.71264648 535.31474609 -689.27294922 534.76855469 C-695.65752429 528.53414106 -701.92036535 522.24585307 -707.625 515.375 C-708.21023438 514.71371094 -708.79546875 514.05242188 -709.3984375 513.37109375 C-723.49396996 496.83041791 -732.42963117 476.66290175 -739.625 456.375 C-740.02017822 455.26535889 -740.02017822 455.26535889 -740.42333984 454.13330078 C-741.23212513 451.84296568 -742.02511499 449.54777297 -742.8125 447.25 C-743.05033203 446.57106689 -743.28816406 445.89213379 -743.53320312 445.19262695 C-747.8489837 432.34653078 -749.29911985 419.50423771 -749.9375 406.0625 C-749.97958588 405.23206177 -750.02167175 404.40162354 -750.06503296 403.54602051 C-750.76333375 389.34570536 -750.507119 375.49089249 -748.625 361.375 C-748.52026367 360.55209473 -748.41552734 359.72918945 -748.30761719 358.88134766 C-746.7965857 347.41762428 -743.96106199 336.43003462 -740.625 325.375 C-740.34188965 324.40312744 -740.0587793 323.43125488 -739.76708984 322.42993164 C-737.33239069 314.2334419 -734.39694852 306.33484505 -731.125 298.4375 C-730.73832657 297.50247147 -730.73832657 297.50247147 -730.34384155 296.54855347 C-721.78544574 275.96292017 -710.96351921 256.18668385 -696.9609375 238.77734375 C-695.4102356 236.46201929 -695.4102356 236.46201929 -695.671875 233.828125 C-696.81558922 230.88446709 -698.21267846 229.35333377 -700.5 227.1875 C-701.19867187 226.51332031 -701.89734375 225.83914063 -702.6171875 225.14453125 C-704.7046915 223.22509953 -704.7046915 223.22509953 -707.625 221.375 C-707.625 220.715 -707.625 220.055 -707.625 219.375 C-708.615 219.045 -709.605 218.715 -710.625 218.375 C-710.625 217.715 -710.625 217.055 -710.625 216.375 C-711.285 216.375 -711.945 216.375 -712.625 216.375 C-714.24609375 214.6953125 -714.24609375 214.6953125 -716.0625 212.5 C-718.20900884 209.91306278 -719.79276562 208.26315626 -722.625 206.375 C-722.625 205.715 -722.625 205.055 -722.625 204.375 C-723.285 204.375 -723.945 204.375 -724.625 204.375 C-726.75 202.5 -726.75 202.5 -728.625 200.375 C-728.625 199.715 -728.625 199.055 -728.625 198.375 C-729.285 198.375 -729.945 198.375 -730.625 198.375 C-731.97143555 197.00512695 -731.97143555 197.00512695 -733.57421875 195.05078125 C-738.66235915 189.06605224 -744.29643668 183.6449535 -749.88647461 178.1340332 C-751.2870081 176.75154966 -752.6845637 175.36605139 -754.08203125 173.98046875 C-754.90678955 173.16731201 -755.73154785 172.35415527 -756.58129883 171.51635742 C-759.7944839 168.14963347 -760.91657127 166.09036737 -760.9375 161.5 C-760.83343576 157.2884589 -760.49795172 154.63101195 -757.625 151.375 C-754.42187772 148.5532018 -751.6582053 147.05537603 -747.4375 146.625 C-736.18528011 147.45126776 -726.3042891 160.25920108 -718.83227539 167.83154297 C-716.91143714 169.77638861 -714.97717131 171.7071329 -713.04101562 173.63671875 C-711.81430388 174.86899551 -710.58836227 176.10203952 -709.36328125 177.3359375 C-708.78532303 177.91298431 -708.20736481 178.49003113 -707.6118927 179.08456421 C-703.625 183.14383325 -703.625 183.14383325 -703.625 185.375 C-702.635 185.705 -701.645 186.035 -700.625 186.375 C-700.625 187.035 -700.625 187.695 -700.625 188.375 C-699.635 188.705 -698.645 189.035 -697.625 189.375 C-697.625 190.035 -697.625 190.695 -697.625 191.375 C-696.696875 191.74625 -696.696875 191.74625 -695.75 192.125 C-693.23789704 193.60270762 -692.86392656 194.81455177 -691.625 197.375 C-690.635 197.705 -689.645 198.035 -688.625 198.375 C-688.625 199.035 -688.625 199.695 -688.625 200.375 C-687.635 200.705 -686.645 201.035 -685.625 201.375 C-684.1953125 202.96875 -684.1953125 202.96875 -682.75 204.875 C-680.84231107 207.15480603 -679.77053645 208.30400661 -677.0625 209.625 C-673.49858257 209.25947001 -671.98246057 206.86168434 -669.625 204.375 C-668.46490801 203.19788502 -667.30196511 202.02357531 -666.13671875 200.8515625 C-665.51700195 200.22660889 -664.89728516 199.60165527 -664.25878906 198.95776367 C-653.81494902 188.45235056 -653.81494902 188.45235056 -648.54296875 184.0234375 C-647.09317638 182.77738377 -645.68588124 181.48165341 -644.30078125 180.1640625 C-636.35308941 172.63216919 -627.65895267 166.52388279 -618.625 160.375 C-617.33709963 159.48587978 -616.04933336 158.59656526 -614.76171875 157.70703125 C-596.56419676 145.24163311 -576.98602756 135.43309464 -556.43359375 127.46875 C-553.72703367 126.46441502 -553.72703367 126.46441502 -551.625 125.375 C-553.52651971 119.35308014 -555.71490422 113.56707482 -558.3125 107.8125 C-558.65990234 107.03729004 -559.00730469 106.26208008 -559.36523438 105.46337891 C-563.54789568 96.21442199 -568.10557049 87.15169527 -572.8359375 78.171875 C-581.94137639 60.7354968 -581.94137639 60.7354968 -579.625 53.0625 C-577.18441849 49.7829686 -575.08211677 47.59277302 -571.625 45.375 C-566.3033319 44.6147617 -562.90703977 45.0522618 -558.265625 48.06225586 C-552.37641501 52.77450023 -548.75179795 59.19726298 -545.25 65.75 C-544.77667236 66.62414551 -544.30334473 67.49829102 -543.81567383 68.39892578 C-539.4299061 76.5804543 -535.42242323 84.90689313 -531.625 93.375 C-531.18583252 94.33841309 -531.18583252 94.33841309 -530.73779297 95.32128906 C-527.56133487 102.30412822 -525.11587823 108.85945544 -523.625 116.375 C-522.37847656 116.04886719 -521.13195313 115.72273437 -519.84765625 115.38671875 C-505.14495283 111.59116021 -490.68175548 108.33441821 -475.48046875 107.5859375 C-472.76786838 107.47323521 -472.76786838 107.47323521 -470.77197266 106.88598633 C-456.43598577 103.4739758 -439.89360314 105.21832784 -425.25 106.1875 C-423.35544067 106.31088745 -423.35544067 106.31088745 -421.42260742 106.43676758 C-411.03160799 107.19658239 -400.73684733 108.44035126 -390.625 111.0078125 C-388.26286687 111.44148538 -386.02130219 111.43324346 -383.625 111.375 C-380.01293353 103.23416837 -376.695059 95.02420866 -373.5625 86.6875 C-370.83205418 79.44807867 -367.99944418 72.34260233 -364.625 65.375 C-364.10421875 64.21355469 -363.5834375 63.05210937 -363.046875 61.85546875 C-359.81717251 54.80867721 -356.57911058 48.34293369 -349.625 44.375 C-346.29667645 43.42477633 -345.01784988 43.24126387 -341.6875 44.375 C-337.4202058 47.16180437 -333.9217049 50.78159019 -331.625 55.375 C-331.59356386 62.09963981 -333.69951014 67.84232946 -336.3125 73.9375 C-337.04329831 75.69593737 -337.77244463 77.45506213 -338.5 79.21484375 C-338.8609375 80.08222168 -339.221875 80.94959961 -339.59375 81.84326172 C-341.09479533 85.52835642 -342.45402731 89.26058713 -343.8125 93 C-346.02394185 99.02201772 -348.65763897 104.6928193 -351.625 110.375 C-353.65380228 114.49752622 -354.77483355 117.73015993 -354.625 122.375 C-353.8721875 122.59414063 -353.119375 122.81328125 -352.34375 123.0390625 C-337.39454321 127.50205385 -323.41269762 133.07298392 -309.625 140.375 C-308.90022461 140.75140625 -308.17544922 141.1278125 -307.42871094 141.515625 C-296.65998106 147.12677387 -286.87387979 153.44059797 -277.36474609 160.99365234 C-275.81339651 162.22541433 -274.24564985 163.43646018 -272.67578125 164.64453125 C-260.50984131 174.21743874 -250.04133746 185.37408593 -240.81835938 197.77148438 C-239.71967963 199.24777909 -238.60284486 200.71051657 -237.484375 202.171875 C-217.625 228.59891732 -217.625 228.59891732 -217.625 238.375 C-214.8703984 236.9976992 -214.67817688 235.51648951 -213.49609375 232.69140625 C-210.37360543 225.61931817 -206.5938006 218.97099169 -202.6875 212.3125 C-202.31772034 211.67970123 -201.94794067 211.04690247 -201.56695557 210.39492798 C-195.08749776 199.35619317 -187.95541807 189.11405282 -179.625 179.375 C-179.00399414 178.6320166 -178.38298828 177.8890332 -177.74316406 177.12353516 C-177.11893555 176.38796387 -176.49470703 175.65239258 -175.8515625 174.89453125 C-175.28260254 174.22139893 -174.71364258 173.5482666 -174.12744141 172.85473633 C-172.625 171.375 -172.625 171.375 -170.625 171.375 C-170.3775 170.818125 -170.13 170.26125 -169.875 169.6875 C-167.27264385 164.87314111 -163.89494771 161.70764211 -159.625 158.375 C-157.34330265 156.14762878 -155.11014077 153.89607713 -152.9375 151.5625 C-151.625 150.375 -151.625 150.375 -149.625 150.375 C-149.295 149.385 -148.965 148.395 -148.625 147.375 C-145.18055556 144.375 -145.18055556 144.375 -142.625 144.375 C-142.625 143.715 -142.625 143.055 -142.625 142.375 C-140.578125 140.75390625 -140.578125 140.75390625 -137.875 138.9375 C-134.08687759 136.37982951 -134.08687759 136.37982951 -130.421875 133.65234375 C-128.625 132.375 -128.625 132.375 -126.625 132.375 C-127.84518837 127.22309354 -130.39193829 123.67933836 -133.4375 119.47265625 C-136.0900982 115.71638772 -138.57837738 111.86893243 -141.0625 108 C-144.25482506 103.0368094 -147.46282061 98.08874351 -150.75 93.1875 C-153.71905417 88.74928653 -156.65727948 84.29268015 -159.5625 79.8125 C-159.95260254 79.21606689 -160.34270508 78.61963379 -160.74462891 78.00512695 C-163.81372704 73.25096669 -165.21937124 69.37586608 -165.1640625 63.734375 C-164.27822612 59.85723605 -161.93142466 58.03550534 -158.84765625 55.69140625 C-154.59717572 53.17398632 -151.25230018 53.04953996 -146.5 54 C-138.93606414 57.61753454 -133.74310593 66.03982001 -129.125 72.8125 C-126.75260473 76.28405944 -124.37661276 79.74465618 -121.875 83.125 C-119.7041978 86.26060317 -117.89161252 89.42818222 -116.08203125 92.77734375 C-113.69799966 97.02769497 -111.08214783 101.13491425 -108.4921875 105.26171875 C-106.70737645 108.23764847 -105.13302271 111.25123867 -103.625 114.375 C-98.78884152 113.83845468 -95.51256348 112.41836793 -91.3125 110 C-69.31329079 97.84357925 -46.04075968 89.80018972 -21.609375 84.19921875 C-18.47511119 83.50126098 -18.47511119 83.50126098 -15.625 81.375 C-15.22659501 79.26950699 -15.22659501 79.26950699 -15.38500977 76.85620117 C-15.41241241 75.95735199 -15.43981506 75.05850281 -15.4680481 74.13241577 C-15.70510752 69.96762791 -16.03962796 65.8254741 -16.46484375 61.67578125 C-16.55125626 60.7964946 -16.63766876 59.91720795 -16.72669983 59.01127625 C-16.90854292 57.16997049 -17.09268436 55.32889035 -17.27905273 53.48803711 C-17.56279779 50.68455772 -17.83963145 47.8804623 -18.11523438 45.07617188 C-18.29387123 43.27600197 -18.47289436 41.47587034 -18.65234375 39.67578125 C-18.7758445 38.43179314 -18.7758445 38.43179314 -18.90184021 37.16267395 C-19.37042778 32.547253 -19.96112318 27.96726297 -20.625 23.375 C-21.48164412 9.38863736 -21.48164412 9.38863736 -17.625 4.375 C-11.89243976 -0.04384852 -7.1528438 -1.70305805 0 0 Z M4.375 109.375 C2.92958272 109.64251821 1.48056692 109.89205844 0.02734375 110.11328125 C-17.27118742 112.7871867 -33.58151874 118.05532239 -49.75927734 124.63916016 C-52.16272792 125.58707956 -54.60743766 126.38423076 -57.0625 127.1875 C-64.84179471 129.97179442 -72.02740009 134.18651964 -79.27539062 138.10986328 C-81.44105386 139.27595502 -83.61553224 140.42217097 -85.796875 141.55859375 C-86.44624023 141.89858398 -87.09560547 142.23857422 -87.76464844 142.58886719 C-89.48849977 143.4910613 -91.21297331 144.39206625 -92.9375 145.29296875 C-101.97855404 150.26663807 -110.28541853 156.1998523 -118.4375 162.5 C-119.33919922 163.18964844 -120.24089844 163.87929688 -121.16992188 164.58984375 C-123.66556666 166.50506345 -126.14894218 168.43454897 -128.625 170.375 C-129.2751709 170.8812793 -129.9253418 171.38755859 -130.59521484 171.90917969 C-131.97877857 173.01586852 -133.30971008 174.18797802 -134.625 175.375 C-134.625 176.035 -134.625 176.695 -134.625 177.375 C-135.19734375 177.6225 -135.7696875 177.87 -136.359375 178.125 C-138.97510611 179.56816199 -140.77273456 181.25716222 -142.875 183.375 C-143.58140625 184.07625 -144.2878125 184.7775 -145.015625 185.5 C-146.84210399 187.21610768 -146.84210399 187.21610768 -146.625 189.375 C-147.285 189.375 -147.945 189.375 -148.625 189.375 C-150.48993195 191.33851756 -150.48993195 191.33851756 -152.5 193.9375 C-153.29792969 194.9378125 -154.09585938 195.938125 -154.91796875 196.96875 C-155.35157715 197.51660156 -155.78518555 198.06445312 -156.23193359 198.62890625 C-157.69654191 200.46467188 -159.18374834 202.28021896 -160.67578125 204.09375 C-166.26240282 210.916134 -171.33342437 217.64768318 -175.625 225.375 C-176.17414062 226.27089844 -176.72328125 227.16679688 -177.2890625 228.08984375 C-181.89001713 235.63986842 -185.41497211 243.43399754 -188.84472656 251.55615234 C-189.88442965 253.97974058 -191.00322033 256.36346874 -192.125 258.75 C-194.78968219 264.54124264 -197.04353877 270.48844619 -199.30273438 276.44677734 C-201.52447322 282.27447322 -201.52447322 282.27447322 -202.625 283.375 C-202.14536435 287.9404208 -201.22473932 292.35554921 -200.21582031 296.82958984 C-193.75810111 325.65059358 -193.53806846 356.67843239 -199.125 385.6875 C-200.3524796 394.16201915 -197.24031776 400.92541356 -193.625 408.375 C-193.11453125 409.43968506 -193.11453125 409.43968506 -192.59375 410.52587891 C-187.76981716 420.42868589 -182.16344641 429.50947673 -175.625 438.375 C-175.11936523 439.07173828 -174.61373047 439.76847656 -174.09277344 440.48632812 C-172.46652309 442.72668019 -170.82929715 444.95852124 -169.1875 447.1875 C-168.66696045 447.90043213 -168.1464209 448.61336426 -167.61010742 449.34790039 C-166.33091353 451.06143406 -164.98369491 452.72379354 -163.625 454.375 C-162.965 454.375 -162.305 454.375 -161.625 454.375 C-161.36775146 454.95677002 -161.11050293 455.53854004 -160.84545898 456.13793945 C-159.5165227 458.57383526 -158.05385569 460.20478378 -156.09765625 462.16796875 C-155.04082642 463.23072021 -155.04082642 463.23072021 -153.96264648 464.31494141 C-152.83644897 465.42748291 -152.83644897 465.42748291 -151.6875 466.5625 C-150.53713257 467.705979 -150.53713257 467.705979 -149.36352539 468.87255859 C-144.42890592 473.72891659 -139.4108428 478.27086216 -133.95703125 482.5390625 C-131.79733499 484.23932589 -129.77678582 486.02026018 -127.75 487.875 C-122.42701479 492.5692008 -116.5320345 496.46575531 -110.625 500.375 C-109.63886719 501.035 -108.65273437 501.695 -107.63671875 502.375 C-93.0654059 511.74902227 -76.98856914 518.77351136 -60.625 524.375 C-59.96741699 524.60026367 -59.30983398 524.82552734 -58.63232422 525.05761719 C-55.40857865 526.15489597 -52.1788004 527.22853021 -48.94140625 528.28515625 C-47.02458795 528.91506474 -45.11237651 529.56027559 -43.21484375 530.24609375 C-29.01757773 535.3677243 -14.17443625 536.16686389 0.75048828 537.12548828 C3.34859394 537.37248958 5.81818161 537.86343067 8.375 538.375 C20.87717149 539.3221342 33.50342114 538.26770293 45.9375 537 C47.19175781 536.87399414 48.44601562 536.74798828 49.73828125 536.61816406 C54.99726404 536.04260399 59.49272255 535.47237954 64.375 533.375 C66.578125 532.99609375 66.578125 532.99609375 68.625 532.8125 C72.16417514 532.79262589 72.16417514 532.79262589 73.375 531.375 C74.85161529 531.04166653 76.33831865 530.75266763 77.828125 530.484375 C95.85374709 527.01248901 112.45827372 520.21819849 128.50390625 511.44921875 C131.82973433 509.64308926 135.20853496 507.97121988 138.61376953 506.32080078 C145.6934208 502.8784933 152.08484289 499.14304912 158.375 494.375 C159.62123567 493.46715525 160.86873882 492.56104905 162.1171875 491.65625 C170.71584796 485.37966016 178.73789819 478.80715799 186.375 471.375 C186.9927832 470.77768066 187.61056641 470.18036133 188.24707031 469.56494141 C190.21485056 467.65589363 192.17212175 465.7367827 194.125 463.8125 C194.74648926 463.20422363 195.36797852 462.59594727 196.00830078 461.96923828 C197.50354017 460.47653678 198.9447482 458.93008147 200.375 457.375 C200.375 456.715 200.375 456.055 200.375 455.375 C201.035 455.375 201.695 455.375 202.375 455.375 C204.18901679 453.28722611 205.88585482 451.19430868 207.5625 449 C208.05862793 448.35804688 208.55475586 447.71609375 209.06591797 447.0546875 C214.74974717 439.65627657 219.99882681 432.01975563 225.0625 424.1875 C225.43133301 423.61708984 225.80016602 423.04667969 226.18017578 422.45898438 C228.7151374 418.49917977 231.06546092 414.46809618 233.375 410.375 C233.8184375 409.61574219 234.261875 408.85648438 234.71875 408.07421875 C237.37293112 403.45630228 239.50045083 398.81358578 241.41015625 393.84375 C242.33212168 391.48471295 243.33105084 389.1822495 244.375 386.875 C258.65512659 355.06671804 263.52734242 320.07947208 260.0625 285.5 C259.94455078 284.21480469 259.82660156 282.92960938 259.70507812 281.60546875 C258.91550259 273.62873133 257.56867853 266.0832714 255.375 258.375 C255.13322021 257.51068359 254.89144043 256.64636719 254.64233398 255.75585938 C246.06601096 225.6360476 231.29398321 201.26124957 211.375 177.375 C210.91867187 176.79492188 210.46234375 176.21484375 209.9921875 175.6171875 C207.15191958 172.02453073 203.92879947 169.15882436 200.453125 166.2109375 C198.44688859 164.4385106 196.64373611 162.57566455 194.8125 160.625 C182.37217562 148.08786376 165.69581305 137.92142239 149.2890625 131.59375 C144.79914738 129.71593027 140.61567439 127.31803778 136.3828125 124.92578125 C133.41479604 123.39551822 130.55947859 122.36197747 127.375 121.375 C125.60182574 120.73562184 123.83094014 120.08985792 122.0625 119.4375 C115.04451751 116.88291639 108.16072738 114.41480036 100.8359375 112.90234375 C99.12448585 112.53560411 97.42132284 112.12884439 95.7265625 111.69140625 C92.29371632 110.82193209 88.84698927 110.06755772 85.375 109.375 C84.67391113 109.23384766 83.97282227 109.09269531 83.25048828 108.94726562 C68.8450146 106.2174824 54.42424661 106.0548388 39.8125 106 C38.85946991 105.99223541 37.90643982 105.98447083 36.92453003 105.97647095 C25.58105989 105.90367119 15.39870753 106.54460131 4.375 109.375 Z M-474.625 137.375 C-476.68688905 137.47228441 -478.7495166 137.55464247 -480.8125 137.625 C-489.14877672 138.19871665 -496.81678138 140.32068303 -504.82910156 142.59960938 C-507.88408746 143.44685311 -510.95079889 144.23489505 -514.0234375 145.015625 C-530.6952392 149.28576685 -545.73649887 154.69101261 -561.03125 162.56640625 C-563.58603517 163.87302489 -566.1668691 165.0945046 -568.78125 166.27734375 C-578.31163234 170.59250105 -586.99895006 175.46474499 -595.625 181.375 C-596.76011526 182.13846915 -597.89553194 182.90149034 -599.03125 183.6640625 C-605.82620026 188.26203798 -612.28881084 193.16744453 -618.625 198.375 C-619.635625 199.17679688 -620.64625 199.97859375 -621.6875 200.8046875 C-622.698125 201.61164063 -623.70875 202.41859375 -624.75 203.25 C-625.68070313 203.98992187 -626.61140625 204.72984375 -627.5703125 205.4921875 C-628.58738281 206.42417969 -628.58738281 206.42417969 -629.625 207.375 C-629.625 208.035 -629.625 208.695 -629.625 209.375 C-630.19468506 209.62088867 -630.76437012 209.86677734 -631.35131836 210.12011719 C-635.98454038 212.67726968 -639.48417593 216.8982135 -643.1875 220.625 C-644.09137451 221.53378906 -644.99524902 222.44257812 -645.92651367 223.37890625 C-652.19256184 229.75486531 -657.93714896 236.24291414 -663.20556641 243.45507812 C-664.84880039 245.67771177 -666.53783519 247.86163885 -668.23046875 250.046875 C-686.97289072 274.38811318 -700.79593656 300.67343073 -709.90576172 330.05664062 C-710.67522215 332.53688375 -711.46503259 335.01024381 -712.25390625 337.484375 C-715.15218135 346.7054524 -717.6796816 355.71680724 -718.625 365.375 C-718.71040039 366.21748291 -718.79580078 367.05996582 -718.88378906 367.92797852 C-719.61487859 375.73423219 -719.7760224 383.47542004 -719.75 391.3125 C-719.75386719 392.50423828 -719.75773438 393.69597656 -719.76171875 394.92382812 C-719.76042969 396.07173828 -719.75914062 397.21964844 -719.7578125 398.40234375 C-719.75668457 399.43093506 -719.75555664 400.45952637 -719.75439453 401.51928711 C-719.63083288 404.24626953 -719.19031266 406.71112676 -718.625 409.375 C-718.645625 410.2825 -718.66625 411.19 -718.6875 412.125 C-718.60572195 416.37745876 -717.63706511 420.26923586 -716.625 424.375 C-716.356875 425.54289062 -716.08875 426.71078125 -715.8125 427.9140625 C-711.04340497 448.3317506 -703.39851286 466.9673812 -691.625 484.375 C-690.66207031 485.87740234 -690.66207031 485.87740234 -689.6796875 487.41015625 C-681.3829682 500.00831121 -670.66128684 512.1985747 -658.625 521.375 C-657.965 521.375 -657.305 521.375 -656.625 521.375 C-656.625 522.035 -656.625 522.695 -656.625 523.375 C-654.19947086 525.61421661 -651.4324944 527.45615339 -648.75 529.375 C-647.53401123 530.24741333 -647.53401123 530.24741333 -646.29345703 531.13745117 C-633.22557133 540.34201853 -618.94115736 547.35020428 -604.625 554.375 C-602.770073 555.3109947 -600.91579321 556.24827448 -599.0625 557.1875 C-593.37543925 560.01678899 -587.95954983 562.34642589 -581.75 563.79296875 C-579.50578563 564.40765246 -577.45607717 565.22067838 -575.3125 566.125 C-540.20161321 580.61434586 -502.13832289 583.51509965 -464.5625 581.75 C-463.31640457 581.69868423 -463.31640457 581.69868423 -462.0451355 581.64633179 C-452.01856439 581.2126946 -442.74267481 580.00562972 -433.06347656 577.31152344 C-429.05672101 576.22022023 -425.0567376 575.49989809 -420.95703125 574.8671875 C-418.35102248 574.3171756 -416.09083046 573.37767202 -413.625 572.375 C-411.52652366 571.77151661 -409.42164157 571.19008141 -407.3125 570.625 C-394.75708115 567.06959926 -383.03383498 562.3627584 -371.45507812 556.31787109 C-369.49688753 555.30899542 -367.52468025 554.33311285 -365.546875 553.36328125 C-358.02746932 549.67350387 -350.71210401 545.85603082 -343.625 541.375 C-342.75746094 540.84390625 -341.88992188 540.3128125 -340.99609375 539.765625 C-334.87313224 535.96816949 -329.09849958 531.83163315 -323.375 527.45703125 C-321.07777983 525.71780064 -318.75289808 524.06271663 -316.375 522.4375 C-315.4675 521.756875 -314.56 521.07625 -313.625 520.375 C-313.625 519.715 -313.625 519.055 -313.625 518.375 C-313.09003906 518.15714844 -312.55507812 517.93929688 -312.00390625 517.71484375 C-308.77825902 515.89809991 -306.23800846 513.46174437 -303.5625 510.9375 C-302.99829346 510.40979004 -302.43408691 509.88208008 -301.8527832 509.33837891 C-293.50520104 501.58587746 -293.50520104 501.58587746 -285.625 493.375 C-285.625 492.715 -285.625 492.055 -285.625 491.375 C-284.965 491.375 -284.305 491.375 -283.625 491.375 C-281.95891862 489.4092637 -280.40751989 487.44116521 -278.875 485.375 C-278.45734375 484.82199219 -278.0396875 484.26898437 -277.609375 483.69921875 C-276.73377996 482.53798752 -275.86280436 481.37326247 -274.99584961 480.20556641 C-274.08526005 478.98960906 -273.1615797 477.78334117 -272.22485352 476.58740234 C-267.65772908 470.69863898 -263.86883512 464.3986135 -260.0625 458 C-259.41603516 456.9275 -258.76957031 455.855 -258.10351562 454.75 C-245.73947699 434.07199439 -235.95282859 410.95950483 -231.0546875 387.28515625 C-230.625 385.375 -230.625 385.375 -229.625 382.375 C-223.54492694 341.93659823 -225.10712217 300.93448353 -239.625 262.375 C-240.13933594 260.99828125 -240.13933594 260.99828125 -240.6640625 259.59375 C-246.15194874 245.70603787 -253.36937402 232.89200029 -262.38964844 221.01611328 C-263.57993984 219.43486055 -264.73224915 217.82523432 -265.8828125 216.21484375 C-275.98474168 202.39745926 -288.40195055 189.92638294 -302.625 180.375 C-304.23375 179.25931641 -304.23375 179.25931641 -305.875 178.12109375 C-313.39512359 173.01410386 -321.20520167 169.01492212 -329.48046875 165.27734375 C-333.2092311 163.59148082 -336.81771187 161.72235296 -340.4375 159.8125 C-348.51524555 155.71727086 -357.01919426 152.92959333 -365.59790039 150.07568359 C-367.13900239 149.54298906 -368.6552526 148.9377786 -370.15625 148.30078125 C-373.8645506 146.91016852 -377.69169978 146.18391825 -381.5625 145.375 C-389.88151185 143.62793927 -389.88151185 143.62793927 -393.65625 142.34375 C-397.45584126 141.10388338 -401.24578603 140.49184604 -405.1875 139.875 C-406.2712793 139.69904297 -406.2712793 139.69904297 -407.37695312 139.51953125 C-408.93125931 139.26879322 -410.48678121 139.02551711 -412.04321289 138.78833008 C-413.82607893 138.50290292 -415.60402337 138.18555363 -417.37670898 137.8425293 C-426.85587994 136.12300203 -436.1946066 136.10343973 -445.79321289 136.16918945 C-448.58163477 136.18762652 -451.36972615 136.18969724 -454.15820312 136.18945312 C-455.94791952 136.19436364 -457.73763369 136.20018991 -459.52734375 136.20703125 C-460.35241928 136.20814407 -461.17749481 136.2092569 -462.02757263 136.21040344 C-466.34181601 136.24576175 -470.37162227 136.56534285 -474.625 137.375 Z " fill="#000000" transform="translate(1545.625,399.625)"/>
<path d="M0 0 C0.75104004 0.21060059 1.50208008 0.42120117 2.27587891 0.63818359 C29.12446294 8.35329395 52.55651978 28.90519801 66 53 C67.86537217 56.93381018 69.44301198 60.93678218 71 65 C71.69792315 66.5671776 72.40556844 68.13007887 73.125 69.6875 C84.62987373 95.4219232 84.86763228 128.71784748 75.3125 155 C67.13121649 176.1598331 55.25078377 195.96670828 38 211 C37.34 211 36.68 211 36 211 C36 211.66 36 212.32 36 213 C34.12890625 214.515625 34.12890625 214.515625 31.5625 216.25 C30.63824219 216.87519531 29.71398438 217.50039063 28.76171875 218.14453125 C27.85035156 218.75683594 26.93898438 219.36914062 26 220 C25.30519531 220.49886719 24.61039063 220.99773437 23.89453125 221.51171875 C19.172869 224.84519403 14.21576985 227.53273088 9.0625 230.125 C8.09642822 230.61214478 8.09642822 230.61214478 7.11083984 231.10913086 C-24.46639494 246.66852677 -57.83971736 247.6785026 -91 237 C-95.75487596 235.20086398 -100.38295368 233.12574421 -105 231 C-106.61068359 230.25919189 -106.61068359 230.25919189 -108.25390625 229.50341797 C-118.71135045 224.60376357 -128.63433771 217.97656172 -137 210 C-137 209.34 -137 208.68 -137 208 C-137.99 207.67 -138.98 207.34 -140 207 C-140 206.34 -140 205.68 -140 205 C-140.99 204.67 -141.98 204.34 -143 204 C-143 203.34 -143 202.68 -143 202 C-143.66 202 -144.32 202 -145 202 C-146.73269068 199.80367339 -148.34774462 197.60881332 -149.9375 195.3125 C-150.38029297 194.68666016 -150.82308594 194.06082031 -151.27929688 193.41601562 C-158 183.85078241 -158 183.85078241 -158 181 C-158.66 181 -159.32 181 -160 181 C-161.21380688 178.57238624 -162.42700215 176.14449991 -163.63671875 173.71484375 C-164.43899344 172.11719072 -165.25024782 170.52389675 -166.08203125 168.94140625 C-172.32559632 156.9766461 -175.17102436 144.86586664 -175.6875 131.4375 C-175.74611206 130.01219971 -175.74611206 130.01219971 -175.8059082 128.55810547 C-176.29427566 114.37762549 -175.06616853 101.63362391 -171 88 C-170.83113281 87.38125 -170.66226562 86.7625 -170.48828125 86.125 C-167.16194068 74.93832599 -161.02185439 62.30283894 -154 53 C-153.34 53 -152.68 53 -152 53 C-151.67 51.68 -151.34 50.36 -151 49 C-150.34 49 -149.68 49 -149 49 C-148.773125 48.29875 -148.54625 47.5975 -148.3125 46.875 C-145.77716271 41.32140402 -141.74700428 37.67892831 -137 34 C-135.84757812 32.83984375 -135.84757812 32.83984375 -134.671875 31.65625 C-123.53017256 20.57970372 -111.22035527 13.41653837 -97.09375 6.97705078 C-94.30864601 5.67737889 -91.5686015 4.29549655 -88.83178711 2.89746094 C-83.09373255 0.08617365 -77.38340311 -1.46175239 -71.1015625 -2.5703125 C-68.95463942 -2.91477182 -68.95463942 -2.91477182 -67 -4 C-44.18033694 -6.82593968 -22.19374864 -6.44578248 0 0 Z " fill="#000000" transform="translate(1694,590)"/>
<path d="M0 0 C1.12599609 -0.00386719 2.25199219 -0.00773438 3.41210938 -0.01171875 C5.01989258 -0.00978516 5.01989258 -0.00978516 6.66015625 -0.0078125 C7.62703369 -0.00668457 8.59391113 -0.00555664 9.59008789 -0.00439453 C11.9375 0.125 11.9375 0.125 13.9375 1.125 C16.5623355 1.44796634 19.1820122 1.73320877 21.8125 2 C45.79966497 4.70514939 73.67372448 16.87861186 89.2265625 36.03515625 C91.2138921 38.46260222 93.35250839 40.71338518 95.5 43 C99.7366816 47.71061548 102.95725766 52.54852414 105.9375 58.125 C106.42863281 59.02734375 106.91976563 59.9296875 107.42578125 60.859375 C120.62351981 86.09536088 125.71642352 114.21374544 121.625 142.4375 C121.50745361 143.24944824 121.38990723 144.06139648 121.26879883 144.89794922 C117.93898864 165.8385191 108.40079769 185.32383916 96.125 202.375 C95.64442139 203.04442627 95.16384277 203.71385254 94.66870117 204.40356445 C93.47671519 206.01692329 92.21290699 207.57674475 90.9375 209.125 C90.2775 209.125 89.6175 209.125 88.9375 209.125 C88.70160156 209.681875 88.46570312 210.23875 88.22265625 210.8125 C82.0790895 221.86718545 69.18239506 229.35201525 58.9375 236.125 C58.00679687 236.74503906 57.07609375 237.36507812 56.1171875 238.00390625 C29.01504438 255.13281849 -4.87982602 261.35145756 -36.09033203 254.45605469 C-49.97607672 251.2390455 -63.36749837 247.68502874 -76.0625 241.125 C-76.66835937 240.81449707 -77.27421875 240.50399414 -77.8984375 240.18408203 C-107.44049854 224.84433567 -128.30702799 197.40619858 -138.43554688 166.13476562 C-145.44353673 143.66990095 -144.29697562 116.35035294 -137.0625 94.125 C-136.73354736 93.10043701 -136.73354736 93.10043701 -136.39794922 92.05517578 C-131.08517103 76.10092279 -121.65457213 62.03007228 -111.0625 49.125 C-110.47339844 48.39410156 -109.88429688 47.66320312 -109.27734375 46.91015625 C-106.47804148 43.52378803 -103.53596704 40.79689772 -100.0625 38.125 C-99.31742188 37.35929688 -98.57234375 36.59359375 -97.8046875 35.8046875 C-94.96485166 33.02957726 -91.97925663 30.6655246 -88.75 28.375 C-88.14824951 27.94743408 -87.54649902 27.51986816 -86.92651367 27.0793457 C-70.89810124 15.91600367 -53.67543973 8.02359741 -34.6875 3.5 C-33.81867188 3.2834375 -32.94984375 3.066875 -32.0546875 2.84375 C-21.40592695 0.29182809 -10.91417187 -0.03867988 0 0 Z " fill="#000000" transform="translate(1168.0625,618.875)"/>
<path d="M0 0 C8.78876956 6.91672223 15.71053969 18.5471 17.05908203 29.65380859 C17.64434515 37.91170606 17.43263049 45.98472074 13.8046875 53.55859375 C13.42957031 54.3990625 13.05445313 55.23953125 12.66796875 56.10546875 C6.71426814 68.80168835 -2.54493549 75.63061214 -15.46484375 80.625 C-18.8091899 81.76848888 -21.65358268 82.37540083 -25.1953125 82.55859375 C-26.71898437 82.65140625 -26.71898437 82.65140625 -28.2734375 82.74609375 C-43.10219116 83.268693 -56.97434388 78.39713904 -68.1953125 68.55859375 C-78.88964536 55.7333603 -82.18560051 45.26269722 -81.1953125 28.55859375 C-79.39466171 16.96174188 -72.37949393 7.51520036 -63.1953125 0.55859375 C-62.33099609 -0.13169922 -62.33099609 -0.13169922 -61.44921875 -0.8359375 C-42.66471461 -15.19545452 -18.92492419 -12.42579542 0 0 Z " fill="#000000" transform="translate(577.1953125,1293.44140625)"/>
<path d="M0 0 C0.7321875 0.16636963 1.464375 0.33273926 2.21875 0.50415039 C8.98014918 2.12395253 15.58515979 4.20441641 22.1875 6.375 C23.17790283 6.69863525 24.16830566 7.02227051 25.1887207 7.35571289 C41.99606987 13.04950434 57.78702496 21.72241882 67.25 37.3125 C70.3170865 43.98007935 70.6461906 50.85173697 68.5625 57.875 C64.54850325 68.69049124 56.79783149 76.97577313 46.6875 82.4375 C38.89454312 85.60033187 29.56737317 86.43868306 21.50537109 83.69482422 C17.29244624 81.89693964 13.3254405 79.70146278 9.37060547 77.39892578 C-4.68114657 69.37226499 -20.68921639 66.0426416 -36.6875 65.6875 C-37.89921875 65.64496094 -39.1109375 65.60242187 -40.359375 65.55859375 C-51.55973566 65.23619531 -63.03313783 65.02995849 -73.75 68.6875 C-74.75981934 69.02019897 -74.75981934 69.02019897 -75.79003906 69.35961914 C-82.1603661 71.55786339 -86.15577087 74.05374675 -90.6875 79.0625 C-93.54158646 84.99021803 -93.72569127 90.87571413 -92.6875 97.3125 C-87.92912312 108.12699291 -74.45975794 114.0358632 -64.08203125 118.12890625 C-55.52767025 121.41265114 -46.92697649 124.22987795 -38.07739258 126.59814453 C-30.24620653 128.69452162 -22.5349419 131.12265277 -14.82470703 133.62402344 C-13.09776285 134.18322441 -11.36949182 134.73833908 -9.64013672 135.29003906 C0.0440694 138.38166185 9.50107664 141.50924673 18.6484375 145.9765625 C21.96911803 147.57287936 25.34334591 148.97226008 28.75 150.375 C41.04120976 155.65043074 50.84442134 162.54469459 60.6875 171.4375 C61.45191406 172.10652344 62.21632813 172.77554687 63.00390625 173.46484375 C78.12760022 187.46387946 84.48073243 207.53377303 85.44140625 227.47265625 C85.63197451 231.43923492 85.63197451 231.43923492 86.26171875 235.34375 C86.86577257 239.93489494 86.45541888 244.29141793 85.9375 248.875 C85.86273437 249.66970703 85.78796875 250.46441406 85.7109375 251.28320312 C85.09803601 256.98968745 83.70750014 262.07574872 81.6875 267.4375 C81.43774414 268.10773193 81.18798828 268.77796387 80.93066406 269.46850586 C80.20225341 271.3830964 79.44964225 273.28611387 78.6875 275.1875 C78.31625 276.13689453 78.31625 276.13689453 77.9375 277.10546875 C72.06800281 291.80978202 60.1439206 305.77741872 47.6875 315.4375 C47.0275 315.4375 46.3675 315.4375 45.6875 315.4375 C45.6875 316.0975 45.6875 316.7575 45.6875 317.4375 C43.6328125 318.953125 43.6328125 318.953125 40.8125 320.6875 C39.80832031 321.30753906 38.80414062 321.92757813 37.76953125 322.56640625 C36.75246094 323.18386719 35.73539063 323.80132813 34.6875 324.4375 C33.80449219 324.98277344 32.92148437 325.52804687 32.01171875 326.08984375 C18.5524576 334.31611067 4.35495288 339.73232955 -10.91015625 343.578125 C-14.4007876 344.45979997 -17.85288231 345.44172836 -21.3125 346.4375 C-34.13829154 350.08953056 -47.06353492 350.18713651 -60.3125 350.4375 C-61.46927246 350.46239502 -61.46927246 350.46239502 -62.64941406 350.48779297 C-69.82478796 350.62650545 -76.9632319 350.41399351 -84.125 350 C-84.81408447 349.96084473 -85.50316895 349.92168945 -86.21313477 349.88134766 C-91.06511099 349.5611945 -91.06511099 349.5611945 -93.3125 348.4375 C-95.10139799 348.17071531 -96.89732876 347.95033575 -98.6953125 347.75390625 C-99.78070312 347.63080078 -100.86609375 347.50769531 -101.984375 347.38085938 C-104.26287723 347.12955398 -106.54152084 346.87952659 -108.8203125 346.63085938 C-114.81967061 345.9481494 -120.49227141 345.04036205 -126.3125 343.4375 C-127.72780964 343.15966237 -129.1442326 342.88732181 -130.5625 342.625 C-142.11346692 340.04718626 -152.88724594 333.89141491 -163.3125 328.4375 C-164.37855469 327.88191406 -165.44460938 327.32632812 -166.54296875 326.75390625 C-182.10326573 318.18238202 -193.34355131 306.89511498 -200.3125 290.4375 C-202.57400418 281.47322438 -201.71103227 273.57283845 -197.3125 265.4375 C-190.40133254 254.6070882 -180.18119262 247.94967181 -168.3125 243.4375 C-158.19983318 241.56803678 -148.04127971 244.72031207 -139.625 250.375 C-138.90054688 250.89191406 -138.17609375 251.40882813 -137.4296875 251.94140625 C-133.89739935 254.43746965 -130.1355943 256.42563842 -126.3125 258.4375 C-125.16007813 259.05753906 -124.00765625 259.67757813 -122.8203125 260.31640625 C-95.87772634 274.51141309 -63.50355567 280.72042734 -33.58984375 272.40234375 C-23.41568118 268.40213571 -13.85994702 261.53239403 -8.875 251.5625 C-7.3596343 243.14380164 -7.87885364 236.528453 -12.77734375 229.265625 C-15.50733656 225.25033333 -15.50733656 225.25033333 -19.3125 222.4375 C-19.3125 221.7775 -19.3125 221.1175 -19.3125 220.4375 C-20.03953125 220.16421875 -20.7665625 219.8909375 -21.515625 219.609375 C-24.20123198 218.48412068 -26.56029063 217.16970046 -29.0625 215.6875 C-36.44280404 211.5973315 -44.33017339 209.07468275 -52.3125 206.4375 C-53.7787253 205.94815471 -55.24486942 205.45856611 -56.7109375 204.96875 C-59.86854413 203.91678021 -63.02766708 202.86948074 -66.1875 201.82421875 C-77.27431785 198.1526242 -88.33637281 194.4290351 -99.3125 190.4375 C-100.14281738 190.13730957 -100.97313477 189.83711914 -101.82861328 189.52783203 C-113.72757046 185.20113827 -125.17367307 180.46869116 -136.3125 174.4375 C-137.36695313 173.87417969 -138.42140625 173.31085938 -139.5078125 172.73046875 C-158.49098971 162.14846266 -175.15611055 147.48979129 -182.3125 126.4375 C-182.59867188 125.67695312 -182.88484375 124.91640625 -183.1796875 124.1328125 C-188.22932705 110.23428079 -188.1853489 91.6156882 -184.3125 77.4375 C-184.06757812 76.50292969 -183.82265625 75.56835938 -183.5703125 74.60546875 C-178.96511286 59.05782571 -169.71361337 45.72077617 -157.3125 35.4375 C-155.19598757 33.53749148 -153.08396993 31.63275661 -150.9765625 29.72265625 C-149.3125 28.4375 -149.3125 28.4375 -147.3125 28.4375 C-147.3125 27.7775 -147.3125 27.1175 -147.3125 26.4375 C-143.83254346 23.82584983 -140.04509728 21.66772687 -136.3125 19.4375 C-134.9821875 18.63699219 -134.9821875 18.63699219 -133.625 17.8203125 C-127.15657475 14.10481824 -120.54364453 11.46742622 -113.46337891 9.14550781 C-111.92660626 8.63964622 -110.3927194 8.12498343 -108.86083984 7.60449219 C-74.43359964 -4.09067202 -35.87626034 -8.28625316 0 0 Z " fill="#000000" transform="translate(879.3125,1318.5625)"/>
<path d="M0 0 C1.10556244 -0.0049926 1.10556244 -0.0049926 2.23345947 -0.01008606 C3.80032733 -0.01515185 5.36720599 -0.01749449 6.93408203 -0.01733398 C9.27786411 -0.01948512 11.62114722 -0.03754384 13.96484375 -0.05664062 C23.69833486 -0.09275795 32.94602662 0.67683362 42.578125 2.16796875 C44.95250134 2.46466971 47.32743626 2.75696619 49.703125 3.04296875 C56.60142684 4.04395968 63.00723418 5.87095819 69.578125 8.16796875 C71.15013672 8.70744141 71.15013672 8.70744141 72.75390625 9.2578125 C93.04301181 16.61540023 114.69581713 29.34146612 129.578125 45.16796875 C129.578125 45.82796875 129.578125 46.48796875 129.578125 47.16796875 C130.568125 47.49796875 131.558125 47.82796875 132.578125 48.16796875 C142.0930022 58.32823491 149.42384254 70.30119154 156.578125 82.16796875 C157.34769531 83.35712891 157.34769531 83.35712891 158.1328125 84.5703125 C159.97824118 87.88709648 161.22529411 91.3402105 162.453125 94.91796875 C162.7099707 95.66385254 162.96681641 96.40973633 163.23144531 97.17822266 C164.02376586 99.50487048 164.80206759 101.83585212 165.578125 104.16796875 C165.81885742 104.87598633 166.05958984 105.58400391 166.30761719 106.31347656 C175.67944202 134.16753334 175.78237183 168.24400552 166.578125 196.16796875 C166.30774414 196.99312988 166.03736328 197.81829102 165.75878906 198.66845703 C164.85966462 201.38207959 163.9430005 204.08887543 163.015625 206.79296875 C162.72276611 207.64705322 162.42990723 208.5011377 162.12817383 209.38110352 C160.62888025 213.62213147 159.04619621 217.37961214 156.578125 221.16796875 C155.67614732 222.85219257 154.78055857 224.53984997 153.890625 226.23046875 C145.51588079 241.55012279 134.57041481 256.41867705 121.578125 268.16796875 C121.00191406 268.69003906 120.42570312 269.21210937 119.83203125 269.75 C115.90560434 273.16796875 115.90560434 273.16796875 113.578125 273.16796875 C113.248125 274.15796875 112.918125 275.14796875 112.578125 276.16796875 C110.29552847 277.87917982 108.03665969 279.44490446 105.640625 280.98046875 C104.95403809 281.42696777 104.26745117 281.8734668 103.56005859 282.33349609 C101.57168773 283.62063826 99.57560496 284.89502877 97.578125 286.16796875 C96.71316406 286.73128906 95.84820313 287.29460937 94.95703125 287.875 C76.09350311 299.74234959 53.60226253 307.98750155 31.578125 311.16796875 C30.92312012 311.26803223 30.26811523 311.3680957 29.59326172 311.47119141 C-7.15496087 316.94506458 -46.07538919 310.67279506 -79.421875 294.16796875 C-80.55238281 293.63300781 -81.68289063 293.09804687 -82.84765625 292.546875 C-89.4726682 289.37462346 -95.61484292 285.91951893 -101.53125 281.55078125 C-103.37350291 280.12254684 -103.37350291 280.12254684 -105.421875 279.16796875 C-105.421875 278.50796875 -105.421875 277.84796875 -105.421875 277.16796875 C-106.26878906 276.79478516 -106.26878906 276.79478516 -107.1328125 276.4140625 C-127.50099032 265.32626604 -143.41265048 238.55292291 -152.671875 218.10546875 C-153.00123047 217.38609131 -153.33058594 216.66671387 -153.66992188 215.92553711 C-158.11277958 205.84165838 -159.95388588 195.86686623 -160.92993164 184.91748047 C-161.10799035 182.93339774 -161.30490091 180.95103646 -161.50195312 178.96875 C-162.64926547 166.71861079 -163.21577274 154.48043408 -161.234375 142.29296875 C-161.10345459 141.45781738 -160.97253418 140.62266602 -160.83764648 139.76220703 C-156.34698008 112.91986491 -143.73966385 87.7358288 -127.421875 66.16796875 C-126.89078125 65.40484375 -126.3596875 64.64171875 -125.8125 63.85546875 C-125.12414063 63.02015625 -125.12414063 63.02015625 -124.421875 62.16796875 C-123.761875 62.16796875 -123.101875 62.16796875 -122.421875 62.16796875 C-122.0357605 61.29398438 -122.0357605 61.29398438 -121.6418457 60.40234375 C-120.31609382 57.97423063 -118.86204834 56.36485167 -116.90234375 54.41796875 C-116.20947266 53.72703125 -115.51660156 53.03609375 -114.80273438 52.32421875 C-114.07892578 51.61265625 -113.35511719 50.90109375 -112.609375 50.16796875 C-111.89716797 49.45640625 -111.18496094 48.74484375 -110.45117188 48.01171875 C-100.52477845 38.16796875 -100.52477845 38.16796875 -97.421875 38.16796875 C-97.421875 37.50796875 -97.421875 36.84796875 -97.421875 36.16796875 C-91.51372047 30.96164683 -84.55025656 26.92151952 -77.796875 22.91796875 C-76.7596228 22.30018555 -76.7596228 22.30018555 -75.70141602 21.66992188 C-71.41347183 19.17195274 -67.0644172 17.04442571 -62.50683594 15.08325195 C-60.71787739 14.29791172 -58.96718565 13.42639728 -57.2265625 12.5390625 C-44.05061246 6.09789472 -27.9398373 3.21198784 -13.43359375 1.5625 C-1.52441436 0.00241295 -1.52441436 0.00241295 0 0 Z M-43.859375 98.85546875 C-59.88838035 117.69475426 -66.69996666 140.27860261 -65.171875 164.79296875 C-63.40748154 184.9922318 -55.44762035 203.03101634 -39.7421875 216.390625 C-31.80976445 222.80833344 -24.55731233 227.15484515 -14.421875 229.16796875 C-13.06875559 229.48589654 -11.71590425 229.8049668 -10.36328125 230.125 C2.42243132 232.95509101 14.32723809 232.2096799 26.578125 227.16796875 C27.2896875 226.89210938 28.00125 226.61625 28.734375 226.33203125 C38.8709682 222.15604039 48.60932906 215.68733151 56.578125 208.16796875 C56.578125 207.50796875 56.578125 206.84796875 56.578125 206.16796875 C57.568125 205.83796875 58.558125 205.50796875 59.578125 205.16796875 C68.2271439 195.06264687 72.33802395 184.92416491 75.578125 172.16796875 C75.75980225 171.46454346 75.94147949 170.76111816 76.12866211 170.03637695 C77.4221464 164.71410179 77.93061071 159.7015563 77.890625 154.23046875 C77.88571045 153.41634521 77.8807959 152.60222168 77.87573242 151.76342773 C77.51592787 132.61998022 72.76724607 112.04332547 58.578125 98.16796875 C43.16716291 84.40727443 27.62927463 76.71726349 6.6953125 76.94921875 C-11.5855548 78.23208663 -31.49335216 84.71016205 -43.859375 98.85546875 Z " fill="#000000" transform="translate(1169.421875,1336.83203125)"/>
<path d="M0 0 C9.6511341 7.10058969 15.0010442 15.48915178 17.10107422 27.29150391 C18.07749832 34.26294454 18.17932088 41.35898697 18.39453125 48.38671875 C22.71020742 47.54855024 23.67868123 45.85697155 26.39453125 42.38671875 C28.25499574 40.64740078 30.17943767 39.00033674 32.1171875 37.34765625 C34.6104783 35.20077464 37.0312248 32.9844516 39.45703125 30.76171875 C49.85767228 21.38671875 49.85767228 21.38671875 53.39453125 21.38671875 C53.39453125 20.72671875 53.39453125 20.06671875 53.39453125 19.38671875 C54.828125 18.30517578 54.828125 18.30517578 56.83203125 17.14453125 C57.56292969 16.71785156 58.29382812 16.29117187 59.046875 15.8515625 C59.82160156 15.40941406 60.59632813 14.96726562 61.39453125 14.51171875 C62.13832031 14.07730469 62.88210938 13.64289063 63.6484375 13.1953125 C70.8383801 9.03139791 78.12917592 5.37546556 85.83203125 2.26171875 C87.04761719 1.76414062 88.26320313 1.2665625 89.515625 0.75390625 C103.52324812 -4.49059411 119.37648878 -4.7887237 134.14453125 -4.86328125 C135.15588135 -4.87246582 136.16723145 -4.88165039 137.20922852 -4.89111328 C142.66385426 -4.86830776 147.16578945 -4.31983992 152.39453125 -2.61328125 C154.45187287 -2.28721201 156.51489488 -1.99503583 158.58203125 -1.73828125 C182.20007332 1.81249501 209.03062975 17.08522611 223.39453125 36.38671875 C223.39453125 37.04671875 223.39453125 37.70671875 223.39453125 38.38671875 C224.05453125 38.38671875 224.71453125 38.38671875 225.39453125 38.38671875 C238.55569945 54.69915258 245.48070455 75.35016678 250.39453125 95.38671875 C250.8121875 97.03027344 250.8121875 97.03027344 251.23828125 98.70703125 C253.53412586 108.41845396 254.3725488 118.1813103 255.14501953 128.11352539 C255.3620572 130.41842263 255.3620572 130.41842263 255.88793945 132.78100586 C258.10877296 144.20411718 257.65527392 156.38134638 257.87133789 168.00048828 C257.64207312 192.21690265 257.64207312 192.21690265 267.6015625 213.0703125 C271.57811425 215.98991585 275.66571924 216.65809232 280.515625 216.17578125 C289.1930286 213.97856713 296.29902466 206.67941297 303.14453125 201.17578125 C309.52288622 196.52489742 314.83889052 195.3054298 322.734375 195.70703125 C331.18954202 197.27714764 337.2923292 202.29092073 342.17578125 209.19921875 C347.29578802 218.38897448 347.98515319 227.77385533 345.55078125 237.89453125 C342.77125135 245.68848333 338.63277678 252.96900072 333.39453125 259.38671875 C332.73453125 259.38671875 332.07453125 259.38671875 331.39453125 259.38671875 C331.05421875 260.22203125 331.05421875 260.22203125 330.70703125 261.07421875 C329.02417385 264.03925322 326.85831751 266.04025564 324.39453125 268.38671875 C323.31171875 269.53140625 323.31171875 269.53140625 322.20703125 270.69921875 C320.39453125 272.38671875 320.39453125 272.38671875 318.39453125 272.38671875 C318.39453125 273.04671875 318.39453125 273.70671875 318.39453125 274.38671875 C316.51782227 275.74365234 316.51782227 275.74365234 313.8984375 277.28515625 C312.94646484 277.8471875 311.99449219 278.40921875 311.01367188 278.98828125 C310.00498047 279.57351563 308.99628906 280.15875 307.95703125 280.76171875 C306.49620117 281.62796875 306.49620117 281.62796875 305.00585938 282.51171875 C280.41359018 296.92163702 253.89630715 300.71453382 226.14453125 293.82421875 C210.29741554 288.7554029 194.77004404 279.44508182 184.39453125 266.38671875 C183.54890625 265.41734375 182.70328125 264.44796875 181.83203125 263.44921875 C159.83905165 235.81701361 157.36825782 199.25375734 155.8984375 165.37109375 C155.85621567 164.39882843 155.81399384 163.42656311 155.77049255 162.42483521 C155.56210188 157.57185061 155.36320276 152.71872615 155.17944336 147.86474609 C154.81398921 138.54968162 154.30525459 129.2659211 153.46484375 119.98046875 C153.35438721 118.70201584 153.35438721 118.70201584 153.24169922 117.3977356 C151.9714986 104.28131339 147.07446182 91.87275877 136.78125 83.1796875 C126.86874776 75.73314326 116.63436298 74.30377068 104.39453125 75.38671875 C95.14968233 76.9991924 87.98965416 81.13263653 80.390625 86.36328125 C77.39453125 88.38671875 77.39453125 88.38671875 75.0546875 89.47265625 C73.03272331 90.34126971 73.03272331 90.34126971 72.39453125 93.38671875 C70.74415248 95.06951567 69.07397764 96.73293056 67.39453125 98.38671875 C65.3288941 100.77233531 63.36078072 103.23142595 61.39453125 105.69921875 C60.88664062 106.32505859 60.37875 106.95089844 59.85546875 107.59570312 C54.24866823 114.60420377 49.93609412 121.86215565 46.33203125 130.07421875 C45.84379883 131.14446289 45.84379883 131.14446289 45.34570312 132.23632812 C32.14713851 162.00497188 27.83441356 196.24748635 26.21826172 228.46734619 C24.37032989 265.29698758 24.37032989 265.29698758 17.39453125 276.38671875 C16.95238281 277.10601563 16.51023437 277.8253125 16.0546875 278.56640625 C11.20426024 285.68753215 4.28863048 291.00493776 -3.60546875 294.38671875 C-8.57008539 295.18081494 -13.58527332 295.23422327 -18.60546875 295.38671875 C-19.37745605 295.41926758 -20.14944336 295.45181641 -20.94482422 295.48535156 C-34.36519764 296.0244536 -47.76830865 295.40572395 -58.60546875 286.38671875 C-72.85341636 272.49721007 -74.61478211 258.00719637 -75.19140625 238.87890625 C-75.2237694 237.8376037 -75.2237694 237.8376037 -75.25678635 236.77526474 C-75.72042597 221.3974155 -75.56231548 206.04779395 -75.27047729 190.66851807 C-75.20163783 186.9574882 -75.14137416 183.246317 -75.08007812 179.53515625 C-74.97871376 173.45597094 -74.87232518 167.37689303 -74.76269531 161.29785156 C-74.62165642 153.45336799 -74.49717604 145.60869819 -74.37830734 137.76385117 C-74.30877101 133.20400708 -74.23615601 128.64421098 -74.16375732 124.08441162 C-74.12556811 121.66177591 -74.08814551 119.23912797 -74.05157471 116.81646729 C-73.8776918 105.45885177 -73.65665215 94.10947956 -73.13671875 82.76171875 C-73.08070496 81.50935425 -73.08070496 81.50935425 -73.02355957 80.23168945 C-72.83992709 76.56091942 -72.57875014 72.93701746 -72.09472656 69.29296875 C-71.60223191 65.36087573 -71.38047217 61.46719541 -71.24609375 57.51171875 C-71.18210474 56.01557689 -71.11696207 54.51948401 -71.05078125 53.0234375 C-70.95062503 50.71838587 -70.85634414 48.41395518 -70.78222656 46.10791016 C-70.22170377 29.23035054 -67.46955148 14.62745247 -54.69921875 2.58984375 C-40.53117057 -9.13944204 -15.50894257 -9.60298843 0 0 Z " fill="#000000" transform="translate(1464.60546875,1349.61328125)"/>
<path d="M0 0 C6.81004093 5.40200066 10.7827635 12.2069327 13.8125 20.25 C14.08964844 20.95125 14.36679687 21.6525 14.65234375 22.375 C17.11298833 29.42639939 17.62376606 36.69025586 18.28515625 44.078125 C18.64712996 47.99927087 19.20284247 51.86466625 19.8059082 55.75561523 C20.79420616 62.62555872 21.23853275 69.39949252 21.4453125 76.33203125 C21.5079277 78.16859032 21.5079277 78.16859032 21.57180786 80.04225159 C21.68112556 83.35851198 21.78248846 86.6747691 21.87776184 89.99144745 C21.93808414 92.08275157 22.00078307 94.17397453 22.06384277 96.26519775 C25.77517132 220.77227205 25.77517132 220.77227205 13.8125 269.25 C13.63509277 269.99266113 13.45768555 270.73532227 13.27490234 271.50048828 C7.33284491 296.02141942 -1.7133534 318.92747923 -15.1875 340.25 C-15.81269531 341.25546875 -16.43789063 342.2609375 -17.08203125 343.296875 C-31.22577064 365.33133215 -49.26336457 383.02649065 -71.1875 397.25 C-72.68782644 398.29119644 -74.18785237 399.3328261 -75.6875 400.375 C-80.92302459 403.86219959 -86.5108708 406.56107038 -92.1875 409.25 C-93.11949219 409.69472656 -94.05148437 410.13945313 -95.01171875 410.59765625 C-105.85815484 415.65726339 -116.43076687 418.97973429 -128.1875 421.25 C-129.10273438 421.4459375 -130.01796875 421.641875 -130.9609375 421.84375 C-137.76221827 423.23260013 -144.55372201 423.66934045 -151.46875 424.03125 C-154.28438171 424.19687539 -157.0213872 424.4375744 -159.8125 424.8125 C-168.85121176 425.90337901 -178.19848466 425.66004162 -187.1875 424.25 C-189.10369141 423.95609375 -189.10369141 423.95609375 -191.05859375 423.65625 C-207.35119479 421.03938032 -225.79629129 417.24937935 -237.1875 404.25 C-237.1875 403.59 -237.1875 402.93 -237.1875 402.25 C-237.8475 402.25 -238.5075 402.25 -239.1875 402.25 C-247.99799529 390.89189161 -250.4167239 380.33020099 -249.1875 366.25 C-246.57625285 353.81548977 -238.25201118 343.65880808 -228.1875 336.25 C-219.49900708 331.23688822 -211.70178601 331.3206456 -202.1875 333.6875 C-175.82644965 339.75083031 -149.8776514 336.38861378 -126.88720703 322.35302734 C-123.69337786 320.28038727 -120.97092915 317.83461278 -118.1875 315.25 C-117.5275 315.25 -116.8675 315.25 -116.1875 315.25 C-116.1875 314.59 -116.1875 313.93 -116.1875 313.25 C-114.52756719 311.90829265 -112.85973761 310.57633967 -111.1875 309.25 C-100.3445411 296.87041419 -94.64110696 281.82036231 -90.1875 266.25 C-89.85363281 265.31285156 -89.51976562 264.37570312 -89.17578125 263.41015625 C-83.83330984 246.32691765 -82.98532274 227.52614874 -81.48681641 209.77246094 C-81.30066027 207.58170989 -81.10207847 205.39193312 -80.88427734 203.20410156 C-79.1442382 184.42630611 -80.22745479 165.31688793 -80.55844116 146.49136353 C-80.62667921 142.59153261 -80.69099559 138.69164846 -80.75512695 134.79174805 C-80.94264439 123.7202728 -81.13434684 112.65163623 -81.546875 101.5859375 C-82.13606411 85.60196053 -82.17474277 69.79535826 -81.375 53.8125 C-81.33402191 52.97578766 -81.29304382 52.13907532 -81.25082397 51.27700806 C-80.24259073 31.43874601 -79.14365129 15.20952427 -63.75 1 C-45.08697405 -11.74548114 -18.84042492 -13.15612214 0 0 Z " fill="#000000" transform="translate(580.1875,1411.75)"/>
</svg>
